# xmcd
#
# Track frame offsets:
#  150
#  17794
#  29146
#  54261
#  79125
#  92050
#  113789
#  126956
#  139078
#  154200
#  179307
#  190909
#  206554
#  226496
#  251320
#  274665
#
# Disc length: 3825 seconds
#
# Revision: 0
# Processed by: cddbd v1.4PL0 Copyright (c) Steve Scherf et al.
# Submitted via: AltoMP3_Maker 3.0
#
DISCID=dc0eef10
DTITLE=Kubanski kazachii jor - Kubanski kazachii jor
DYEAR=1900
DGENRE=
TTITLE0=Ti kuban, ti nasha rodina
TTITLE1=Yijali kazachenki
TTITLE2=Dumi Moi
TTITLE3=Zapobit
TTITLE4=Oy, na nebi tuchi nabigaiyut
TTITLE5=Sontse nizhenko
TTITLE6=Po-nad lugom shlyaj dorizhenka
TTITLE7=Buli b mene y komori groshi
TTITLE8=Bednaya ptitska b kletke sidit
TTITLE9=Oy na gore sidela para golbey
TTITLE10=Bila zhinka muzhina
TTITLE11=Oy jotia bi gospodi
TTITLE12=Za sibirom sontse sjode
TTITLE13=Bzyav  bi ya banduru
TTITLE14=Oy tam y sadu
TTITLE15=Sche y ne bierla ykraina
EXTD=
EXTT0=
EXTT1=
EXTT2=
EXTT3=
EXTT4=
EXTT5=
EXTT6=
EXTT7=
EXTT8=
EXTT9=
EXTT10=
EXTT11=
EXTT12=
EXTT13=
EXTT14=
EXTT15=
PLAYORDER=
